<svg width="800" height="800" viewBox="473 50 194 200" xmlns="http://www.w3.org/2000/svg">
<defs><clipPath id="c"><circle cx="570" cy="148" r="94"></circle></clipPath></defs>
<g clip-path="url(#c)">
  <circle cx="570" cy="148" r="94" fill="#050F1E"></circle>
  <circle cx="533" cy="74" r="28" fill="#0A1828"></circle>
  <circle cx="607" cy="74" r="28" fill="#0A1828"></circle>
  <circle cx="570" cy="155" r="78" fill="#EEF0F8"></circle>
  <ellipse cx="544" cy="139" rx="24" ry="21" fill="#050F1E"></ellipse>
  <ellipse cx="596" cy="139" rx="24" ry="21" fill="#050F1E"></ellipse>
  <circle cx="544" cy="139" r="13" fill="#F5F8FF"></circle>
  <circle cx="596" cy="139" r="13" fill="#F5F8FF"></circle>
  <circle cx="546" cy="141" r="8.5" fill="#050F1E"></circle>
  <circle cx="598" cy="141" r="8.5" fill="#050F1E"></circle>
  <circle cx="549" cy="138" r="3" fill="#82CFFF" opacity="0.8"></circle>
  <circle cx="601" cy="138" r="3" fill="#82CFFF" opacity="0.8"></circle>
  <rect x="523" y="126" width="40" height="27" rx="3.5" fill="none" stroke="#1A8FFF" stroke-width="4"></rect>
  <rect x="577" y="126" width="40" height="27" rx="3.5" fill="none" stroke="#1A8FFF" stroke-width="4"></rect>
  <line x1="563" y1="139" x2="577" y2="139" stroke="#1A8FFF" stroke-width="4"></line>
  <line x1="523" y1="139" x2="506" y2="137" stroke="#1A8FFF" stroke-width="3" stroke-linecap="round"></line>
  <line x1="617" y1="139" x2="634" y2="137" stroke="#1A8FFF" stroke-width="3" stroke-linecap="round"></line>
  <ellipse cx="570" cy="169" rx="10" ry="7" fill="#3A5068"></ellipse>
  <path d="M558 182 Q570 194 582 182" fill="none" stroke="#3A5068" stroke-width="3" stroke-linecap="round"></path>
  <text x="533" y="84" text-anchor="middle" fill="#1A8FFF" font-size="16" font-weight="bold" font-family="system-ui">AI</text>
  <circle cx="522" cy="72" r="3.5" fill="#1A8FFF" opacity="0.9"></circle>
  <circle cx="533" cy="60" r="3.5" fill="#1A8FFF" opacity="0.9"></circle>
  <circle cx="544" cy="72" r="3.5" fill="#1A8FFF" opacity="0.9"></circle>
  <circle cx="533" cy="84" r="3.5" fill="#1A8FFF" opacity="0.7"></circle>
  <line x1="522" y1="72" x2="533" y2="60" stroke="#1A8FFF" stroke-width="1.2" opacity="0.7"></line>
  <line x1="533" y1="60" x2="544" y2="72" stroke="#1A8FFF" stroke-width="1.2" opacity="0.7"></line>
  <line x1="544" y1="72" x2="533" y2="84" stroke="#1A8FFF" stroke-width="1.2" opacity="0.7"></line>
  <line x1="533" y1="84" x2="522" y2="72" stroke="#1A8FFF" stroke-width="1.2" opacity="0.7"></line>
  <line x1="522" y1="72" x2="544" y2="72" stroke="#1A8FFF" stroke-width="1" opacity="0.5"></line>
  <line x1="533" y1="60" x2="533" y2="84" stroke="#1A8FFF" stroke-width="1" opacity="0.5"></line>
  <text x="607" y="82" text-anchor="middle" fill="#1A8FFF" font-size="16" font-weight="bold" font-family="Segoe UI,system-ui">₿</text>
  <rect x="474" y="214" width="192" height="32" fill="#1A8FFF"></rect>
  <text x="570" y="236" text-anchor="middle" fill="#050F1E" font-size="13" font-weight="bold" font-family="system-ui,sans-serif">YoYo AI 日报</text>
</g>
<circle cx="570" cy="148" r="94" fill="none" stroke="#F0B90B" stroke-width="3.6"></circle>
</svg>